<mxfile host="app.diagrams.net" modified="2024-02-15T12:13:20.415Z" agent="Mozilla/5.0 (Macintosh; Intel Mac OS X 10_15_7) AppleWebKit/537.36 (KHTML, like Gecko) Chrome/121.0.0.0 Safari/537.36" etag="Chl9b8JWGBE27Irkag_F" version="23.1.2" type="device">
  <diagram name="Page-1" id="wfquSICVcImkmltxNOJW">
    <mxGraphModel dx="1466" dy="841" grid="1" gridSize="10" guides="1" tooltips="1" connect="1" arrows="1" fold="1" page="1" pageScale="1" pageWidth="850" pageHeight="1100" math="0" shadow="0">
      <root>
        <mxCell id="0" />
        <mxCell id="1" parent="0" />
        <mxCell id="WjkBIVxSLe_PAbAfXqfz-14" value="" style="rounded=0;whiteSpace=wrap;html=1;strokeColor=none;" vertex="1" parent="1">
          <mxGeometry width="850" height="430" as="geometry" />
        </mxCell>
        <mxCell id="WjkBIVxSLe_PAbAfXqfz-8" value="" style="shape=image;verticalLabelPosition=bottom;labelBackgroundColor=default;verticalAlign=top;aspect=fixed;imageAspect=0;image=https://t4.ftcdn.net/jpg/00/78/02/99/360_F_78029952_E1nX08EkLcqKEgMzGREc1Xu0UnNGFH1J.jpg;" vertex="1" parent="1">
          <mxGeometry x="70" width="762.61" height="370" as="geometry" />
        </mxCell>
        <mxCell id="WjkBIVxSLe_PAbAfXqfz-5" value="" style="shape=image;verticalLabelPosition=bottom;labelBackgroundColor=default;verticalAlign=top;aspect=fixed;imageAspect=0;image=data:image/png,iVBORw0KGgoAAAANSUhEUgAAA8AAAAHgCAYAAABq5QSEAAAAOXRFWHRTb2Z0d2FyZQBNYXRwbG90bGliIHZlcnNpb24zLjcuMiwgaHR0cHM6Ly9tYXRwbG90bGliLm9yZy8pXeV/AAAACXBIWXMAAA7EAAAOxAGVKw4bAAANeklEQVR4nO3cwYqd5RnA8eeMEboppdCVlMYKFnoVuYCI9g6k64I7rZtWbAuNdldwLd6BlnoBrnoJhS5KFHFXitCF0GS+LkzMOGicSc6c8zb/328TnvNlvvfJd1b/k+Hstm0bAAAAeNKdHHsBAAAAOAQBDAAAQIIABgAAIEEAAwAAkCCAAQAASBDAAAAAJAhgAAAAEgQwAAAACQIYAACABAEMAABAggAGAAAgQQADAACQIIABAABIEMAAAAAkCGAAAAASBDAAAAAJAhgAAIAEAQwAAECCAAYAACBBAAMAAJAggAEAAEgQwAAAACQIYAAAABIEMAAAAAkCGAAAgAQBDAAAQIIABgAAIEEAAwAAkCCAAQAASBDAAAAAJAhgAAAAEgQwAAAACQIYAACABAEMAABAggAGAAAgQQADAACQIIABAABIEMAAAAAkCGAAAAASBDAAAAAJAhgAAIAEAQwAAECCAAYAACBBAAMAAJAggAEAAEgQwAAAACQIYAAAABIEMAAAAAkCGAAAgAQBDAAAQIIABgAAIEEAAwAAkCCAAQAASBDAAAAAJAhgAAAAEgQwAAAACQIYAACABAEMAABAggAGAAAgQQADAACQIIABAABIEMAAAAAkCGAAAAASBDAAAAAJAhgAAIAEAQwAAECCAAYAACBBAAMAAJAggAEAAEgQwAAAACQIYAAAABIEMAAAAAkCGAAAgAQBDAAAQIIABgAAIEEAAwAAkCCAAQAASBDAAAAAJAhgAAAAEgQwAAAACQIYAACABAEMAABAggAGAAAgQQADAACQIIABAABIEMAAAAAkCGAAAAASBDAAAAAJAhgAAIAEAQwAAECCAAYAACBBAAMAAJAggAEAAEgQwAAAACQIYAAAABIEMAAAAAkCGAAAgAQBDAAAQIIABgAAIEEAAwAAkCCAAQAASBDAAAAAJAhgAAAAEgQwAAAACQIYAACABAEMAABAggAGAAAgQQADAACQIIABAABIEMAAAAAkCGAAAAASBDAAAAAJAhgAAIAEAQwAAECCAAYAACBBAAMAAJAggAEAAEgQwAAAACQIYAAAABIEMAAAAAkCGAAAgAQBDAAAQIIABgAAIEEAAwAAkCCAAQAASBDAAAAAJAhgAAAAEgQwAAAACQIYAACABAEMAABAggAGAAAgQQADAACQIIABAABIEMAAAAAkCGAAAAASBDAAAAAJAhgAAIAEAQwAAECCAAYAACBBAAMAAJAggAEAAEgQwAAAACQIYAAAABIEMAAAAAkCGAAAgAQBDAAAQIIABgAAIEEAAwAAkCCAAQAASBDAAAAAJAhgAAAAEgQwAAAACQIYAACABAEMAABAggAGAAAgQQADAACQIIABAABIEMAAAAAkCGAAAAASBDAAAAAJAhgAAIAEAQwAAECCAAYAACBBAAMAAJAggAEAAEgQwAAAACQIYAAAABIEMAAAAAkCGAAAgAQBDAAAQIIABgAAIEEAAwAAkCCAAQAASBDAAAAAJAhgAAAAEgQwAAAACQIYAACABAEMAABAggAGAAAgQQADAACQIIABAABIEMAAAAAkCGAAAAASBDAAAAAJAhgAAIAEAQwAAECCAAYAACBBAAMAAJAggAEAAEgQwAAAACQIYAAAABIEMAAAAAkCGAAAgAQBDAAAQIIABgAAIEEAAwAAkCCAAQAASBDAAAAAJAhgAAAAEgQwAAAACQIYAACABAEMAABAggAGAAAgQQADAACQIIABAABIEMAAAAAkCGAAAAASBDAAAAAJAhgAAIAEAQwAAECCAAYAACBBAAMAAJAggAEAAEgQwAAAACQIYAAAABIEMAAAAAkCGAAAgAQBDAAAQIIABgAAIEEAAwAAkCCAAQAASBDAAAAAJAhgAAAAEq4dewFann39w5OZ+e2Zl353+9bN0++6tu+zjnmvPZ3/+5n5zczsZubGmdc/mpk3D7nbRRz7+QEAwIwA5vBOZuaNM/MfZub0Atf2fdYx77WP8/94br7vxnwZx6vF5bGfHwAA+BVoAAAAGgQwAAAACQIYAACABAEMAABAggAGAAAgQQADAACQIIABAABIEMAAAAAkCGAAAAASBDAAAAAJAhgAAIAEAcyV2+12z+12u+f2df2y8+Peb2bm03de/un5+XF2uux8/vzP3n3la/Pj/hsf5Zkc+n34f5tX2GG1eYUdVptX2GG1eYUdVptX2GH1eYUdVptX2GG1GWYEMAAAABECGAAAgAQBDAAAQIIABgAAIGG3bduxd+AJd+/LB/42M0/P7qm5/toHP7x/7eO3X/r3bHe//CBm99TpN1ybefBBzem9Py827+9+M7uTk+uv/eUHD+714ueznV5+p0edz5//p198fv3V97+az/raM726/S73Mw973w/1DA8/r7DDavMKO6w2r7DDavMKO6w2r7DD6vMKO6w2r7DDavMX27Y9M6QJYK7c/W/f27btn8++/uG1mfnvmctPf/zWCz+Zmbn+679+cv7a7Vs375z9+fP3e9i8r/vNzFz7/o+e//Gv3vvH/fnTd17+2d3//OvuZXd61Pn8+Z+9+8rPn/nln//+LY/8q2d6Vftc9mce9r4f6hkeel5hh9XmFXZYbV5hh9XmFXZYbV5hh9XnFXZYbV5hh9VmmHnwqQgAAAA80QQwAAAACQIYAACABAEMAABAgi/B4qC+6cuQbt+6eee7ru37rGPea0/nf29mvviWv37Q3S7i2M8PAABm/A8wAAAAEQIYAACABAEMAABAggAGAAAgQQADAACQIIABAABIEMAAAAAkCGAAAAASBDAAAAAJAhgAAIAEAQwAAECCAAYAACDh2rEXIOd0Zt48N1/k2r7POua99nH+nXvzbmZunHn9ozn8bhdx7OcHAACz27bt2DsAAADAlfMr0AAAACQIYAAAABIEMAAAAAkCGAAAgAQBDAAAQIIABgAAIEEAAwAAkCCAAQAASBDAAAAAJAhgAAAAEgQwAAAACQIYAACABAEMAABAggAGAAAgQQADAACQIIABAABIEMAAAAAkCGAAAAASBDAAAAAJAhgAAIAEAQwAAECCAAYAACBBAAMAAJAggAEAAEgQwAAAACQIYAAAABIEMAAAAAkCGAAAgAQBDAAAQIIABgAAIEEAAwAAkCCAAQAASBDAAAAAJAhgAAAAEgQwAAAACQIYAACABAEMAABAggAGAAAgQQADAACQIIABAABIEMAAAAAkCGAAAAASBDAAAAAJAhgAAIAEAQwAAECCAAYAACBBAAMAAJAggAEAAEgQwAAAACQIYAAAABIEMAAAAAkCGAAAgAQBDAAAQIIABgAAIEEAAwAAkCCAAQAASBDAAAAAJAhgAAAAEgQwAAAACQIYAACABAEMAABAggAGAAAgQQADAACQIIABAABIEMAAAAAkCGAAAAASBDAAAAAJAhgAAIAEAQwAAECCAAYAACBBAAMAAJAggAEAAEgQwAAAACQIYAAAABIEMAAAAAkCGAAAgAQBDAAAQIIABgAAIEEAAwAAkCCAAQAASBDAAAAAJAhgAAAAEgQwAAAACQIYAACABAEMAABAggAGAAAgQQADAACQIIABAABIEMAAAAAkCGAAAAASBDAAAAAJAhgAAIAEAQwAAECCAAYAACBBAAMAAJAggAEAAEgQwAAAACQIYAAAABIEMAAAAAkCGAAAgAQBDAAAQIIABgAAIEEAAwAAkCCAAQAASBDAAAAAJAhgAAAAEgQwAAAACQIYAACABAEMAABAggAGAAAgQQADAACQIIABAABIEMAAAAAkCGAAAAASBDAAAAAJAhgAAIAEAQwAAECCAAYAACBBAAMAAJAggAEAAEgQwAAAACQIYAAAABIEMAAAAAkCGAAAgAQBDAAAQIIABgAAIEEAAwAAkCCAAQAASBDAAAAAJAhgAAAAEgQwAAAACQIYAACABAEMAABAggAGAAAgQQADAACQIIABAABIEMAAAAAkCGAAAAASBDAAAAAJAhgAAIAEAQwAAECCAAYAACBBAAMAAJAggAEAAEgQwAAAACQIYAAAABIEMAAAAAkCGAAAgAQBDAAAQIIABgAAIEEAAwAAkCCAAQAASBDAAAAAJAhgAAAAEgQwAAAACQIYAACABAEMAABAggAGAAAgQQADAACQIIABAABIEMAAAAAkCGAAAAASBDAAAAAJAhgAAIAEAQwAAECCAAYAACBBAAMAAJAggAEAAEgQwAAAACQIYAAAABIEMAAAAAkCGAAAgAQBDAAAQIIABgAAIEEAAwAAkCCAAQAASBDAAAAAJAhgAAAAEgQwAAAACQIYAACABAEMAABAggAGAAAgQQADAACQIIABAABIEMAAAAAkCGAAAAASBDAAAAAJAhgAAIAEAQwAAECCAAYAACBBAAMAAJAggAEAAEgQwAAAACQIYAAAABIEMAAAAAkCGAAAgAQBDAAAQIIABgAAIEEAAwAAkCCAAQAASBDAAAAAJAhgAAAAEgQwAAAACQIYAACABAEMAABAggAGAAAgQQADAACQIIABAABIEMAAAAAkCGAAAAASBDAAAAAJAhgAAIAEAQwAAECCAAYAACBBAAMAAJAggAEAAEgQwAAAACT8D39qCYHdIX3/AAAAAElFTkSuQmCC;clipPath=inset(39.33% 12% 39.33% 14.67%);" vertex="1" parent="1">
          <mxGeometry x="73.18" y="260" width="756.25" height="110" as="geometry" />
        </mxCell>
        <mxCell id="WjkBIVxSLe_PAbAfXqfz-9" value="" style="shape=image;verticalLabelPosition=bottom;labelBackgroundColor=default;verticalAlign=top;aspect=fixed;imageAspect=0;image=data:image/png,iVBORw0KGgoAAAANSUhEUgAAA8AAAAHgCAYAAABq5QSEAAAAOXRFWHRTb2Z0d2FyZQBNYXRwbG90bGliIHZlcnNpb24zLjcuMiwgaHR0cHM6Ly9tYXRwbG90bGliLm9yZy8pXeV/AAAACXBIWXMAAA7EAAAOxAGVKw4bAAAfMUlEQVR4nO3deZBV9Znw8d/tBXqhodkEGpBG7WYRFMTBBB0BFZFoXkhINNtoHDOxKgtDsJwYl1jG4PJSZJesoyU6kThayhuMYxQwVQ6mTBkTsqmgLSggi2LTNN1K973vH5lmmpZF1r7yfD5VlvW7y7nPPQ1VfPucc28ml8slAAAAONYVdPYAAAAAcDQIYAAAAEIQwAAAAIQggAEAAAhBAAMAABCCAAYAACAEAQwAAEAIAhgAAIAQBDAAAAAhCGAAAABCEMAAAACEIIABAAAIQQADAAAQggAGAAAgBAEMAABACAIYAACAEAQwAAAAIQhgAAAAQhDAAAAAhCCAAQAACEEAAwAAEIIABgAAIAQBDAAAQAgCGAAAgBAEMAAAACEIYAAAAEIQwAAAAIQggAEAAAhBAAMAABCCAAYAACAEAQwAAEAIAhgAAIAQBDAAAAAhCGAAAABCEMAAAACEIIABAAAIQQADAAAQggAGAAAgBAEMAABACAIYAACAEAQwAAAAIQhgAAAAQhDAAAAAhCCAAQAACEEAAwAAEIIABgAAIAQBDAAAQAgCGAAAgBAEMAAAACEIYAAAAEIQwAAAAIQggAEAAAhBAAMAABCCAAYAACAEAQwAAEAIAhgAAIAQBDAAAAAhCGAAAABCEMAAAACEIIABAAAIQQADAAAQggAGAAAgBAEMAABACAIYAACAEAQwAAAAIRR19gAAABH84Q9/GFxaWjq7uLi4fyaTyXT2PMDhkcvlcjt37ny9qanpO2PGjHm1s+dh3zK5XK6zZwAAOKY9++yzXXr27Ll4yJAh/QoLC7OdPQ9weLW2thasWbNm49atW6ePGzfunc6eh71zCjQAwBFWVlZ2ZVVV1QDxC8emwsLC7IABAwaUlZVd2dmzsG8CGADgCCsuLh5dUlLS0tlzAEdOaWlpS3Fx8ejOnoN9E8AAAEdYQUFBeWfPABx5/q7nPwEMAHCE+dAriMHf9fwngAEAAAhBAAMAwEFYsmRJRSaTGfe9732v93t5/MyZM6szmcy4nTt3HunRDpvx48cPGz9+/LAjse2BAweO7rjtTCYzbubMmdUHs70XXnihSyaTGTdnzpyqwzIgxyQBDADAIWkLwbb/CgoKxvXo0WPMmWeeWbN48eKKzp7vaHrqqafK5syZU/XCCy906exZgHcr6uwBAAA4Nlx88cVbJk6c2NDa2ppZvXp114ULF/adOXNm7QMPPPDijBkzGjp7vsNt2rRpDY2Njb/v0qVLru22Z555puzb3/72gHPOOadh2LBhvg/2ADU2Nv6+sLDwoJ5bU1PzTmNj4++Li4tz+380UQlgAAAOizPOOKPxC1/4wptt64svvnjrWWedNXL+/Pn9j8UALiwsTGVlZWLrAGSz2dTY2FhQUVGxx+/EPpT9WVBQ4OfBfjkFGgCAI+LMM89sqqysbHn11Ve7ppTSsmXLymfMmDF08ODBo7p27XpaZWXlmClTppz43HPPlXR87s6dO9Ps2bOr+vXrd0pJSclpJ5988ohf/OIXPWbOnFk9cODAd33X6uOPP14+ceLEk7p37z6ma9eupw0fPnzk97///f1em/vwww9XZDKZcffdd1+Ptts2btxYWFBQMK6oqOi0+vr6Xf9evuuuu3pmMplxjz32WLeU3n0N8Jw5c6quuuqqISml9OEPf7i27ZTwjtcIv/7660UzZswYWlFRMaa8vHzshRdeeMLGjRv3e9iz7fWWLFnyrtPKBw4cOLr9tbNt18POmjWr6mc/+1nPmpqak7t27XpadXX1qJ/97Gc9Oz6/oaGh4Iorrhjcu3fvU0tLS8eefvrpw37zm9+U7W2W++67r8c//MM/DCsvLx9bWlo6duzYscMXLVrUo/1j2s/wgx/8oHdtbe3Irl27nvbtb3+7z9622/Ea4AN5H3u6Brhtn33rW9/qc8stt/QdPHjwqC5dupw2fPjwkb/85S/ftR/XrVtXNGPGjKHdu3cfU15ePvbss8+uWblyZdeO+5f3L0eAAQA4Il5//fXCbdu2FVVXV7+dUkoPPvhg5bp167pccsklb1RVVe1cu3Ztl3vuuafvOeecM+zPf/7zXwYOHNjS9txLL710yKJFi/qcffbZ9RdccEH9mjVrul5xxRUnVFVVvd3xde65557Kyy+//ISRI0fu+Nd//dcNZWVl2UceeaRy1qxZ1Rs3biz65je/uXFvM5577rmNRUVFueXLl1d88pOfrE8ppV//+tcVKaXU2tqaefzxx7t97GMf25ZSSsuXL68oKSnJTpw4sXFP27rkkku2rlu3rvj+++/v86Uvfen1ESNGNKWU0qRJk7a3f9y0adNqBg0a9Pb111+/7oUXXihZuHDhcVdeeWXu4YcfrjvwvbxvS5cu7bFo0aI+l1122ebKysrWhQsX9rnyyitPGD9+/J9POeWUXfty+vTpJyxfvrzHhRdeuPWss85qWLlyZemHP/zh2srKypb+/fvv9qldc+fOPe76668fPGHChG1f/epX12UymfTAAw/0+tSnPnXStm3bXv785z+/tf3j/+u//qvy3nvvLf7sZz+7ecCAAe8MHz78XT/Dw/U+9ubOO+/su3379sJLL710S5cuXbI//vGP+33yk588qa6ubmXfvn1bU0qpqakpM3ny5NqXXnqp9BOf+MTmU045pWnFihXdpk6dWtvc3OzA4TFCAAMAdIJsLpdas/l3tmZhQSYVHORXmW7fvr1gw4YNRdlsNv31r3/teu211w7KZrPpox/96JsppXTbbbdt6Hjq6z//8z+/cfrpp5/8gx/8oM+tt976ekop/e53vytZtGhRnw996ENbH3nkkZfbHjtlypRtH/vYx2qqqqreafeamVmzZg05++yztz3xxBOrCwr+3ilf+9rXNl9wwQUnzJ8/v2r27Nlb+vTp07qnmSsqKrKjR4/esWLFil1HA5988smKYcOGNTU3N2eWLVtW0RbAv/3tb7uNHTu2saSkZI8/uDPOOKPpjDPOaLz//vv7TJ06ddtFF120x9O+x40bt/3uu+9+tf1tCxcuPO7NN99c06tXrz2eGnywXn755ZKVK1f+paam5p2UUrr00kvfPPHEE09ZsGBB3x/96EevpZTSAw880H358uU9Lr/88k133nnnrrnmzp3bfP311w9uH8B1dXXFN91006B/+qd/2rxw4cK1bbd/7Wtf23TaaacNv+GGGwZfccUVW9tfx1tXV1fy3HPP/WXUqFEHHL4H8j72ZdOmTcXPP//8n9v275QpUxrOPPPMkf/+7//e65prrtmcUkrf+c53+qxatar01ltvXdt2W0pp8xe/+MWBCxYs6H+ws5NfBDAAQCdozeZSzXWPjuvsOTpaNXfaswWFBxfAN9544+Abb7xxcNu6pKQk+4UvfOH16667blNKf4/Ntvvq6+sLmpqaMn379m2trq5ufvbZZ8vb7nvooYcqU0ppzpw5ux25nTlz5rYTTzyxuampadfRuMWLF3d/6623ii677LItGzdu3O3fttOmTat/7LHHej7xxBPdPvGJT9Tvbe4JEyY0/OhHP+r/xhtvFPbu3bt1xYoVFRMmTGhoamrK/Pd//3dFSilt2LChaPXq1aXTp09ff1A7p505c+Zsar+eNGlSw1133XXc6tWru44fP77pULff3nnnnfdWWzSmlNLgwYNbhg4d2lxXV9e17ba2/X3DDTe83v65V1111ebbbrttt68U+o//+I+eO3fuzHzuc5/bsmHDht329/nnn18/f/78queee67k9NNPb267feLEifWHEr/v9X3sy8c//vE32v9yYcKECU3dunVrfemll3Y9/1e/+lVleXl5dvbs2VvaP/e6667bKICPHQIYAIDD4nOf+9zGCy+8sL6goCD17NmzdezYsU3dunXbdbR0zZo1xV/5ylcGLl26tHLbtm27XfPaq1evXac/v/LKK11SSmnUqFHNqYOhQ4c2//Wvf911berf/va3kpRS+uxnP3vi3ubqGMYdnXPOOQ133HFH/1//+tfdzjvvvO0vvvhi6XXXXbd+x44dmfvvv79PfX19wWOPPdYtl8ulc88995A/zKu2tna3T4fu1atXa0opbd68+eA+/ngfjj/++Hd9EnWPHj1a33rrrV2vtXbt2q7l5eXZoUOH7naqc0lJSW7QoEG7Pf/5558vSSmliRMnjtjba27YsKE4pbTrZzd06NBDit+U3tv72Je20/Db6969e+vWrVt3/dl47bXXulRVVb3d8Qh/VVVVS0VFxR7PIOD9RwADAHBYjBgxonlvn/bc2tqapkyZUrN27dqSf/mXf9k4bty4xu7du2cLCgpyV1999fHZbPagDjvncrlMSindfvvta2tra98VzCmlNGbMmD3e3ua8887bXlhYmFu+fHlFNvv3g4RTp05taGpqyrRdB/zkk0/u8/rfA1FUVLTHU6jb3sveZDKZvZ4z39rausfnFhYWHtRr7U0u9/fN3X333S917959j1E4fvz4He3XpaWlh3xa96G+j719tVLb+yEOAQwA0AkKCzJp1dxpz3b2HB0VFhzc6c/788wzz5SuWrWqdM6cOevnz5+/of19n//85wt79uy56whwdXX1Oyml9Kc//amkX79+uwVnXV3dbp8YXVNT05xSSpWVlS0H+1VL3bt3z44aNWrHihUrKrLZbKqtrW1q+2Ck6urq5mXLllWsWLGi4tRTT20sLS3dZzFlDvL66fei7TrmN998c7ea27FjR2bLli3FB7vd448//u2nnnqqe11dXXH7o8DNzc2Z1157rUvbh3mllNJJJ530dkopDRw4cOe55557yL8MyCeDBg1657nnnuvW3NycaX8UeP369UUNDQ2H/eg8ncOnmQEAdIKCTCYVFxbk3X8H+wFY+9N21LPjkd4FCxb02rx5827xNmPGjPqUUvrWt77Vr/3tDz74YPeXXnpptwD+yEc+sq2ysrJl3rx5Ve2/sqjN+vXri9qO6u7LmWee2fD888+XPfHEE5UTJkzYFdIf/OAHGx599NHK1atXl5511ln7Dezy8vI9RurhUFNT83ZhYWFu6dKlu319zy233HJca+vBn6E7ffr0t1JK6eabb97tOtf58+f33b59+27v49Of/vTWoqKi3Ne//vWqt99++11/WNatW/e+PcA2bdq0txobGws6fk3T3Llz++3tObz/vG//gAIA8P4xZsyY5urq6uYf/vCH/ZubmzMnnnji288++2z5o48+2nPQoEG7XZ85fvz4po9//ONb/vM//7PPpEmTTpo6dWr92rVru9x77719a2trm9pHWY8ePbLf//7311x++eUnDBs2bNQll1yyZciQIe9s2rSp6I9//GPZ0qVLKxsbG3/f9unQezN58uSGBQsW9F+zZk3XyZMn7wrdSZMmNdx333192x6zv/f5wQ9+cEdKKc2bN2/A1q1bC0tLS7Nnn3124/Dhw991DeuB6tWrV3b69Olv3nvvvcflcrnMqFGjmn7729+WP/PMMxWVlZUt+9/Cnl188cXb7rjjjvq77rrruE2bNhX/4z/+Y8Mf//jH0iVLlvQaPHjwbj+b2trad26++eZXr7322uNHjhw58iMf+cibVVVVO9evX1/8u9/9rnzVqlWl69ev/9OhvtfOMHv27C133nnncddff/3xf/nLX0pHjx7d9PTTT3d75plnulVWVrYcyaP7HD0CGACAI664uDgtWbJk9Ze//OXBP//5z/u2tLRkTj311O2/+tWvXpg9e/bxHR9/zz33rO3fv//ORYsW9Xn66ae719TUNN19990v/+QnP+mzatWq0vaP/cxnPvPWkCFDnp87d27/e++9t++2bdsKe/bs2XLSSSc13XTTTa/u7frP9qZMmbK9sLAwl8vlMlOnTt0VuhdccEFDSil17do1d8455+z3lN/Ro0e/fcstt6xdsGBBv6uuuqq6tbU1ffe7331l+PDhb7ynHbUfP/7xj19taWnJPPTQQ70efPDBzAc+8IFty5Yte2Hy5MnDDmW7S5YseXnWrFkDFy9e3Gvp0qU9Tj755B2//OUvX7z66qsHd3zsNddcs3nEiBHN8+fP7//Tn/60X1NTU0Hv3r13jhgxounGG29cdyhzdKaysrLcsmXLXvjSl740ePHixb0eeuihzPjx4xsef/zxF88666zhJSUlh/UrqugcGRd+AwAcWXV1dT8fOnRobWfPcSyora0dedxxx+186qmnVnX2LMSwcePGwv79+4+55ppr1rV9V/Xe1NXVvTh06NBPHa3ZOHCuAQYAIO9s3779XeebPvjgg91XrVpVOmnSpG2dMRPHvj39ufvGN77RP6WUzj//fH/ujgFOgQYAIO/MmzfvuMcff7zH5MmTt1VWVrasXLmy7Be/+EWfqqqqd77yla9s6ez5ODZ99KMfPaGsrCx7+umnN6aU0pNPPlmxdOnSyvPOO++tyZMn79jf88l/AhgAgLzzgQ98oPGxxx7rsWDBgn4NDQ2FlZWVrRdddNGb8+bNW9e7d++D/8hj2Ifzzz+//s477+y7dOnSHs3NzQUDBgx458tf/vKG22+/fcP+n837gWuAAQCOMNcAQwyuAc5/rgEGAAAgBAEMAABACAIYAACAEAQwAMARlsvlsp09A3Dk+bue/wQwAMAR1tLSUp/NZt/1/aLAsSObzWZaWlrqO3sO9k0AAwAcYTt27LhlzZo1b4hgODZls9nMmjVr3tixY8ctnT0L++ZrkAAAjoI//OEPA8vKyq4tKirqkclkHISAY0Qul8u2tLTU79ix45YxY8as6+x52DcBDAAAQAh++wgAAEAIAhgAAIAQBDAAAAAhCGAAAABCEMAAAACEIIABAAAIQQADAAAQggAGAAAgBAEMAABACAIYAACAEAQwAAAAIQhgAAAAQhDAAAAAhCCAAQAACEEAAwAAEIIABgAAIAQBDAAAQAgCGAAAgBAEMAAAACEIYAAAAEIQwAAAAIQggAEAAAhBAAMAABCCAAYAACAEAQwAAEAIAhgAAIAQBDAAAAAhCGAAAABCEMAAAACEIIABAAAIQQADAAAQggAGAAAgBAEMAABACAIYAACAEAQwAAAAIQhgAAAAQhDAAAAAhCCAAQAACEEAAwAAEIIABgAAIAQBDAAAQAgCGAAAgBAEMAAAACEIYAAAAEIQwAAAAIQggAEAAAhBAAMAABCCAAYAACAEAQwAAEAIAhgAAIAQBDAAAAAhCGAAAABCEMAAAACEIIABAAAIQQADAAAQggAGAAAgBAEMAABACAIYAACAEAQwAAAAIQhgAAAAQhDAAAAAhCCAAQAACEEAAwAAEIIABgAAIAQBDAAAQAgCGAAAgBAEMAAAACEIYAAAAEIQwAAAAIQggAEAAAhBAAMAABCCAAYAACAEAQwAAEAIAhgAAIAQBDAAAAAhCGAAAABCEMAAAACEIIABAAAIQQADAAAQggAGAAAgBAEMAABACAIYAACAEAQwAAAAIQhgAAAAQhDAAAAAhCCAAQAACEEAAwAAEIIABgAAIAQBDAAAQAgCGAAAgBAEMAAAACEIYAAAAEIQwAAAAIQggAEAAAhBAAMAABCCAAYAACAEAQwAAEAIAhgAAIAQBDAAAAAhCGAAAABCEMAAAACEIIABAAAIQQADAAAQggAGAAAgBAEMAABACAIYAACAEAQwAAAAIQhgAAAAQhDAAAAAhCCAAQAACEEAAwAAEIIABgAAIAQBDAAAQAgCGAAAgBAEMAAAACEIYAAAAEIQwAAAAIQggAEAAAhBAAMAABCCAAYAACAEAQwAAEAIAhgAAIAQBDAAAAAhCGAAAABCKOrsAYil+ppHClJKX2930zdeue3C7P7uO9yv1ZnbOkyvf3NK6YaUUialNLHd7b9JKd10NGd7Lzp7/wEAQEoCmKOvIKV0Y7v1N1NK2fdw3+F+rc7c1uF4/Vs7rNtMTH+P43yLy87efwAA4BRoAAAAYhDAAAAAhCCAAQAACEEAAwAAEIIABgAAIAQBDAAAQAgCGAAAgBAEMAAAACEIYAAAAEIQwAAAAIQggAEAAAhBAHPEZTKZEzKZzAmH6/4DXR/q9lJK6bU7LhvacX0oMx3ouuPrr79r1m7rQ32PB7NPjvbP4f22zocZ8m2dDzPk2zofZsi3dT7MkG/rfJgh39f5MEO+rfNhhnxbQ0oCGAAAgCAEMAAAACEIYAAAAEIQwAAAAISQyeVynT0Dx7j/+fCBp1NKxSlTmIb82+Kebfet+b/Tt6Zc699/EZMpzO7hvpT+9xc12f/5/3tbH77tpZQpKBjyb/+vx/9u6//Up1z2wGc62HXH1583o37I1Q/vWre32z49cvMd2HP29XM/Wvvw6K/zYYZ8W+fDDPm2zocZ8m2dDzPk2zofZsj3dT7MkG/rfJgh39bNuVyuKhGaAOaIa/v0vVwu93L1NY8UpZR2tru7eM3tFx2fUkpDvrpkbcf7Xrntwpb2z++4vX2tD9f2UkqpqKJPzaAv3v1i2/q1Oy6rbd3+RuuBznSw646vv/6uWSOqLv/e3/ayy3ft0yM1z4E+Z18/96O1D4/2Oh9myLd1PsyQb+t8mCHf1vkwQ76t82GGfF/nwwz5ts6HGfJtDSn9729FAAAA4JgmgAEAAAhBAAMAABCCAAYAACAEH4LFUbWnD0N65bYLW/Z33+F+rc7c1mF6/ZKUUvNeHn5UZ3svOnv/AQBASo4AAwAAEIQABgAAIAQBDAAAQAgCGAAAgBAEMAAAACEIYAAAAEIQwAAAAIQggAEAAAhBAAMAABCCAAYAACAEAQwAAEAIAhgAAIAQijp7AMLJppRu6rB+L/cd7tfqzG0djtdv+Z91JqU0sd3tv0lHf7b3orP3HwAApEwul+vsGQAAAOCIcwo0AAAAIQhgAAAAQhDAAAAAhCCAAQAACEEAAwAAEIIABgAAIAQBDAAAQAgCGAAAgBAEMAAAACEIYAAAAEIQwAAAAIQggAEAAAhBAAMAABCCAAYAACAEAQwAAEAIAhgAAIAQBDAAAAAhCGAAAABCEMAAAACEIIABAAAIQQADAAAQggAGAAAgBAEMAABACAIYAACAEAQwAAAAIQhgAAAAQhDAAAAAhCCAAQAACEEAAwAAEIIABgAAIAQBDAAAQAgCGAAAgBAEMAAAACEIYAAAAEIQwAAAAIQggAEAAAhBAAMAABCCAAYAACAEAQwAAEAIAhgAAIAQBDAAAAAhCGAAAABCEMAAAACEIIABAAAIQQADAAAQggAGAAAgBAEMAABACAIYAACAEAQwAAAAIQhgAAAAQhDAAAAAhCCAAQAACEEAAwAAEIIABgAAIAQBDAAAQAgCGAAAgBAEMAAAACEIYAAAAEIQwAAAAIQggAEAAAhBAAMAABCCAAYAACAEAQwAAEAIAhgAAIAQBDAAAAAhCGAAAABCEMAAAACEIIABAAAIQQADAAAQggAGAAAgBAEMAABACAIYAACAEAQwAAAAIQhgAAAAQhDAAAAAhCCAAQAACEEAAwAAEIIABgAAIAQBDAAAQAgCGAAAgBAEMAAAACEIYAAAAEIQwAAAAIQggAEAAAhBAAMAABCCAAYAACAEAQwAAEAIAhgAAIAQBDAAAAAhCGAAAABCEMAAAACEIIABAAAIQQADAAAQggAGAAAgBAEMAABACAIYAACAEAQwAAAAIQhgAAAAQhDAAAAAhCCAAQAACEEAAwAAEIIABgAAIAQBDAAAQAgCGAAAgBAEMAAAACEIYAAAAEIQwAAAAIQggAEAAAhBAAMAABCCAAYAACAEAQwAAEAIAhgAAIAQBDAAAAAhCGAAAABCEMAAAACEIIABAAAIQQADAAAQggAGAAAgBAEMAABACAIYAACAEAQwAAAAIQhgAAAAQhDAAAAAhCCAAQAACEEAAwAAEIIABgAAIAQBDAAAQAgCGAAAgBAEMAAAACEIYAAAAEIQwAAAAIQggAEAAAhBAAMAABCCAAYAACAEAQwAAEAIAhgAAIAQBDAAAAAhCGAAAABCEMAAAACEIIABAAAIQQADAAAQggAGAAAgBAEMAABACAIYAACAEAQwAAAAIQhgAAAAQhDAAAAAhCCAAQAACEEAAwAAEIIABgAAIAQBDAAAQAgCGAAAgBAEMAAAACEIYAAAAEIQwAAAAIQggAEAAAhBAAMAABCCAAYAACAEAQwAAEAIAhgAAIAQBDAAAAAhCGAAAABCEMAAAACEIIABAAAIQQADAAAQggAGAAAgBAEMAABACAIYAACAEAQwAAAAIQhgAAAAQhDAAAAAhCCAAQAACEEAAwAAEIIABgAAIAQBDAAAQAgCGAAAgBAEMAAAACEIYAAAAEIQwAAAAIQggAEAAAhBAAMAABCCAAYAACAEAQwAAEAIAhgAAIAQBDAAAAAhCGAAAABCEMAAAACEIIABAAAIQQADAAAQggAGAAAgBAEMAABACAIYAACAEAQwAAAAIQhgAAAAQhDAAAAAhCCAAQAACEEAAwAAEIIABgAAIAQBDAAAQAgCGAAAgBAEMAAAACEIYAAAAEIQwAAAAIQggAEAAAhBAAMAABCCAAYAACAEAQwAAEAIAhgAAIAQBDAAAAAhCGAAAABCEMAAAACEIIABAAAIQQADAAAQggAGAAAgBAEMAABACAIYAACAEAQwAAAAIfx/e2lqpByWieMAAAAASUVORK5CYII=;clipPath=inset(10.67% 9.67% 76.67% 63%);" vertex="1" parent="1">
          <mxGeometry x="599.43" y="329.98999999999995" width="230" height="53.29" as="geometry" />
        </mxCell>
        <mxCell id="WjkBIVxSLe_PAbAfXqfz-10" value="" style="shape=curlyBracket;whiteSpace=wrap;html=1;rounded=1;flipH=1;labelPosition=right;verticalLabelPosition=middle;align=left;verticalAlign=middle;rotation=90;strokeWidth=2;" vertex="1" parent="1">
          <mxGeometry x="213.5" y="252.5" width="20" height="270" as="geometry" />
        </mxCell>
        <mxCell id="WjkBIVxSLe_PAbAfXqfz-11" value="" style="shape=curlyBracket;whiteSpace=wrap;html=1;rounded=1;flipH=1;labelPosition=right;verticalLabelPosition=middle;align=left;verticalAlign=middle;rotation=90;strokeWidth=2;" vertex="1" parent="1">
          <mxGeometry x="283" y="291.64" width="20" height="130" as="geometry" />
        </mxCell>
        <mxCell id="WjkBIVxSLe_PAbAfXqfz-12" value="&lt;div&gt;&lt;font style=&quot;font-size: 20px;&quot;&gt;𝜏&lt;/font&gt;&lt;/div&gt;" style="text;html=1;strokeColor=none;fillColor=none;align=center;verticalAlign=middle;whiteSpace=wrap;rounded=0;" vertex="1" parent="1">
          <mxGeometry x="263" y="358" width="60" height="30" as="geometry" />
        </mxCell>
        <mxCell id="WjkBIVxSLe_PAbAfXqfz-13" value="&lt;font style=&quot;font-size: 20px;&quot;&gt;λ&lt;/font&gt;" style="text;html=1;strokeColor=none;fillColor=none;align=center;verticalAlign=middle;whiteSpace=wrap;rounded=0;" vertex="1" parent="1">
          <mxGeometry x="192.5" y="396" width="60" height="30" as="geometry" />
        </mxCell>
      </root>
    </mxGraphModel>
  </diagram>
</mxfile>
